# xmcd
#
# Track frame offsets:
# 150
# 15843
# 30384
# 46927
# 59062
# 73663
# 91850
# 105805
# 125097
# 143272
#
# Disc length: 2178 seconds
#
#
# Revision: 0
# Processed by: cddbd v1.5PL3 Copyright (c) Steve Scherf et al.
# Submitted via: FreeRIP 2.53 
#
DISCID=7308800a
DTITLE=McCready, Mindy - Super Hits
DYEAR=1900
DGENRE=Country
TTITLE0=Ten Thousand Angels
TTITLE1=Guys Do It All The Time
TTITLE2=Maybe, Maybe Not
TTITLE3=A Girl's Gotta Do(What A Girl's Gotta Do
TTITLE4=What If I Do
TTITLE5=You'll Never Know
TTITLE6=The Other Side Of This Kiss
TTITLE7=Oh Romeo
TTITLE8=Over and Over
TTITLE9=Long, Long Time
EXTD=
EXTT0=
EXTT1=
EXTT2=
EXTT3=
EXTT4=
EXTT5=
EXTT6=
EXTT7=
EXTT8=
EXTT9=
PLAYORDER=
